<svg xmlns="http://www.w3.org/2000/svg" xmlns:xlink="http://www.w3.org/1999/xlink" width="2040" zoomAndPan="magnify" viewBox="0 0 1530 449.999984" height="600" preserveAspectRatio="xMidYMid meet" version="1.0"><defs><clipPath id="4dd6280a6d"><path d="M 0 34.023438 L 1530 34.023438 L 1530 450 L 0 450 Z M 0 34.023438 " clip-rule="nonzero"/></clipPath><clipPath id="4c60492f9f"><path d="M 66.796875 34.023438 L 1455 34.023438 C 1496.421875 34.023438 1530 67.601562 1530 109.023438 L 1530 375 C 1530 416.421875 1496.421875 450 1455 450 L 66.796875 450 C 25.378906 450 -8.203125 416.421875 -8.203125 375 L -8.203125 109.023438 C -8.203125 67.601562 25.378906 34.023438 66.796875 34.023438 Z M 66.796875 34.023438 " clip-rule="nonzero"/></clipPath><clipPath id="5a3ac08b98"><path d="M 0 0 L 1530 0 L 1530 415.976562 L 0 415.976562 Z M 0 0 " clip-rule="nonzero"/></clipPath><clipPath id="796b8e559b"><path d="M 75 0 L 1455 0 C 1496.421875 0 1530 33.578125 1530 75 L 1530 340.976562 C 1530 382.398438 1496.421875 415.976562 1455 415.976562 L 75 415.976562 C 33.578125 415.976562 0 382.398438 0 340.976562 L 0 75 C 0 33.578125 33.578125 0 75 0 Z M 75 0 " clip-rule="nonzero"/></clipPath></defs><g clip-path="url(#4dd6280a6d)"><g clip-path="url(#4c60492f9f)"><path fill="#0b9301" d="M -8.203125 34.023438 L 1530.585938 34.023438 L 1530.585938 450 L -8.203125 450 Z M -8.203125 34.023438 " fill-opacity="1" fill-rule="nonzero"/></g></g><g clip-path="url(#5a3ac08b98)"><g clip-path="url(#796b8e559b)"><path fill="#14c626" d="M 0 0 L 1530.664062 0 L 1530.664062 415.976562 L 0 415.976562 Z M 0 0 " fill-opacity="1" fill-rule="nonzero"/></g></g></svg>