<svg xmlns="http://www.w3.org/2000/svg" xmlns:xlink="http://www.w3.org/1999/xlink" width="3000" zoomAndPan="magnify" viewBox="0 0 2250 2624.999883" height="3500" preserveAspectRatio="xMidYMid meet" version="1.0"><defs><clipPath id="656f1a2697"><path d="M 175.5 0 L 2074.5 0 C 2121.046875 0 2165.683594 18.488281 2198.597656 51.402344 C 2231.511719 84.316406 2250 128.953125 2250 175.5 L 2250 2449.5 C 2250 2496.046875 2231.511719 2540.683594 2198.597656 2573.597656 C 2165.683594 2606.507812 2121.046875 2625 2074.5 2625 L 175.5 2625 C 128.953125 2625 84.316406 2606.507812 51.402344 2573.597656 C 18.488281 2540.683594 0 2496.046875 0 2449.5 L 0 175.5 C 0 78.574219 78.574219 0 175.5 0 Z M 175.5 0 " clip-rule="nonzero"/></clipPath><clipPath id="39f21ac5c0"><path d="M 0 49.675781 L 2250 49.675781 L 2250 2625 L 0 2625 Z M 0 49.675781 " clip-rule="nonzero"/></clipPath><clipPath id="32031c6f60"><path d="M 175.5 49.675781 L 2074.5 49.675781 C 2121.046875 49.675781 2165.683594 68.167969 2198.597656 101.078125 C 2231.511719 133.992188 2250 178.632812 2250 225.175781 L 2250 2449.5 C 2250 2496.046875 2231.511719 2540.683594 2198.597656 2573.597656 C 2165.683594 2606.507812 2121.046875 2625 2074.5 2625 L 175.5 2625 C 128.953125 2625 84.316406 2606.507812 51.402344 2573.597656 C 18.488281 2540.683594 0 2496.046875 0 2449.5 L 0 225.175781 C 0 128.25 78.574219 49.675781 175.5 49.675781 Z M 175.5 49.675781 " clip-rule="nonzero"/></clipPath></defs><rect x="-225" width="2700" fill="#ffffff" y="-262.499988" height="3149.99986" fill-opacity="1"/><rect x="-225" width="2700" fill="#ffffff" y="-262.499988" height="3149.99986" fill-opacity="1"/><g clip-path="url(#656f1a2697)"><rect x="-225" width="2700" fill="#02387a" y="-262.499988" height="3149.99986" fill-opacity="1"/></g><g clip-path="url(#39f21ac5c0)"><g clip-path="url(#32031c6f60)"><path fill="#0348a5" d="M 0 49.675781 L 2250 49.675781 L 2250 2624.871094 L 0 2624.871094 Z M 0 49.675781 " fill-opacity="1" fill-rule="nonzero"/></g></g></svg>