<svg xmlns="http://www.w3.org/2000/svg" xmlns:xlink="http://www.w3.org/1999/xlink" width="4000" zoomAndPan="magnify" viewBox="0 0 3000 3749.999967" height="5000" preserveAspectRatio="xMidYMid meet" version="1.0"><defs><clipPath id="5022afa94c"><path d="M 2927.25 3750 L 72.75 3750 C 53.457031 3750 34.953125 3742.335938 21.308594 3728.691406 C 7.664062 3715.046875 0 3696.542969 0 3677.25 L 0 72.75 C 0 53.457031 7.664062 34.949219 21.308594 21.308594 C 34.953125 7.664062 53.457031 0 72.75 0 L 2927.25 0 C 2946.542969 0 2965.046875 7.664062 2978.691406 21.308594 C 2992.335938 34.949219 3000 53.457031 3000 72.75 L 3000 3677.25 C 3000 3696.542969 2992.335938 3715.046875 2978.691406 3728.691406 C 2965.046875 3742.335938 2946.542969 3750 2927.25 3750 Z M 2927.25 3750 " clip-rule="nonzero"/></clipPath><clipPath id="e94d873c6a"><path d="M 0 3 L 3000 3 L 3000 3686.496094 L 0 3686.496094 Z M 0 3 " clip-rule="nonzero"/></clipPath><clipPath id="4ba9f33f1a"><path d="M 2927.25 3686.496094 L 72.75 3686.496094 C 53.457031 3686.496094 34.953125 3678.832031 21.308594 3665.1875 C 7.664062 3651.542969 0 3633.039062 0 3613.746094 L 0 72.742188 C 0 53.449219 7.664062 34.945312 21.308594 21.300781 C 34.953125 7.65625 53.457031 -0.0078125 72.75 -0.0078125 L 2927.25 -0.0078125 C 2946.542969 -0.0078125 2965.046875 7.65625 2978.691406 21.300781 C 2992.335938 34.945312 3000 53.449219 3000 72.742188 L 3000 3613.746094 C 3000 3633.039062 2992.335938 3651.542969 2978.691406 3665.1875 C 2965.046875 3678.832031 2946.542969 3686.496094 2927.25 3686.496094 Z M 2927.25 3686.496094 " clip-rule="nonzero"/></clipPath></defs><rect x="-300" width="3600" fill="#ffffff" y="-374.999997" height="4499.99996" fill-opacity="1"/><rect x="-300" width="3600" fill="#ffffff" y="-374.999997" height="4499.99996" fill-opacity="1"/><g clip-path="url(#5022afa94c)"><rect x="-300" width="3600" fill="#0755b4" y="-374.999997" height="4499.99996" fill-opacity="1"/></g><g clip-path="url(#e94d873c6a)"><g clip-path="url(#4ba9f33f1a)"><path fill="#0873f6" d="M 3000 3686.496094 L 0 3686.496094 L 0 3.910156 L 3000 3.910156 Z M 3000 3686.496094 " fill-opacity="1" fill-rule="nonzero"/></g></g></svg>