<svg xmlns="http://www.w3.org/2000/svg" xmlns:xlink="http://www.w3.org/1999/xlink" width="5000" zoomAndPan="magnify" viewBox="0 0 3750 2699.999998" height="3600" preserveAspectRatio="xMidYMid meet" version="1.0"><defs><clipPath id="f99a85baa9"><path d="M 0 3 L 3750 3 L 3750 2700 L 0 2700 Z M 0 3 " clip-rule="nonzero"/></clipPath><clipPath id="daa9e2d5cd"><path d="M 3677.25 2700 L 72.75 2700 C 32.570312 2700 0 2667.429688 0 2627.25 L 0 72.75 C 0 32.570312 32.570312 0 72.75 0 L 3677.25 0 C 3717.429688 0 3750 32.570312 3750 72.75 L 3750 2627.25 C 3750 2667.429688 3717.429688 2700 3677.25 2700 Z M 3677.25 2700 " clip-rule="nonzero"/></clipPath><clipPath id="b23abbcf4a"><path d="M 4 0 L 3750 0 L 3750 2648.894531 L 4 2648.894531 Z M 4 0 " clip-rule="nonzero"/></clipPath><clipPath id="17568de36a"><path d="M 3677.25 2648.894531 L 72.75 2648.894531 C 32.570312 2648.894531 0 2616.324219 0 2576.144531 L 0 72.742188 C 0 32.5625 32.570312 -0.0078125 72.75 -0.0078125 L 3677.25 -0.0078125 C 3717.429688 -0.0078125 3750 32.5625 3750 72.742188 L 3750 2576.144531 C 3750 2616.324219 3717.429688 2648.894531 3677.25 2648.894531 Z M 3677.25 2648.894531 " clip-rule="nonzero"/></clipPath></defs><g clip-path="url(#f99a85baa9)"><g clip-path="url(#daa9e2d5cd)"><path fill="#0755b4" d="M 3750 2700 L 0 2700 L 0 3.371094 L 3750 3.371094 Z M 3750 2700 " fill-opacity="1" fill-rule="nonzero"/></g></g><g clip-path="url(#b23abbcf4a)"><g clip-path="url(#17568de36a)"><path fill="#0873f6" d="M 3750 2648.894531 L 4.285156 2648.894531 L 4.285156 -0.0078125 L 3750 -0.0078125 Z M 3750 2648.894531 " fill-opacity="1" fill-rule="nonzero"/></g></g></svg>