<svg xmlns="http://www.w3.org/2000/svg" xmlns:xlink="http://www.w3.org/1999/xlink" width="5000" zoomAndPan="magnify" viewBox="0 0 3750 449.999984" height="600" preserveAspectRatio="xMidYMid meet" version="1.0"><defs><clipPath id="2961035d83"><path d="M 61.5 0 L 3688.5 0 C 3722.464844 0 3750 27.535156 3750 61.5 L 3750 388.5 C 3750 422.464844 3722.464844 450 3688.5 450 L 61.5 450 C 27.535156 450 0 422.464844 0 388.5 L 0 61.5 C 0 27.535156 27.535156 0 61.5 0 Z M 61.5 0 " clip-rule="nonzero"/></clipPath><clipPath id="4e4bcd9060"><path d="M 0 0 L 3750 0 L 3750 425.84375 L 0 425.84375 Z M 0 0 " clip-rule="nonzero"/></clipPath><clipPath id="f04a22b292"><path d="M 61.5 0 L 3688.5 0 C 3722.464844 0 3750 27.535156 3750 61.5 L 3750 364.34375 C 3750 398.308594 3722.464844 425.84375 3688.5 425.84375 L 61.5 425.84375 C 27.535156 425.84375 0 398.308594 0 364.34375 L 0 61.5 C 0 27.535156 27.535156 0 61.5 0 Z M 61.5 0 " clip-rule="nonzero"/></clipPath></defs><rect x="-375" width="4500" fill="#ffffff" y="-44.999998" height="539.99998" fill-opacity="1"/><rect x="-375" width="4500" fill="#ffffff" y="-44.999998" height="539.99998" fill-opacity="1"/><g clip-path="url(#2961035d83)"><path fill="#02387a" d="M 0 0 L 3749.414062 0 L 3749.414062 450 L 0 450 Z M 0 0 " fill-opacity="1" fill-rule="nonzero"/></g><g clip-path="url(#4e4bcd9060)"><g clip-path="url(#f04a22b292)"><path fill="#0348a5" d="M 0 0 L 3749.429688 0 L 3749.429688 425.84375 L 0 425.84375 Z M 0 0 " fill-opacity="1" fill-rule="nonzero"/></g></g></svg>