<svg xmlns="http://www.w3.org/2000/svg" xmlns:xlink="http://www.w3.org/1999/xlink" width="5000" zoomAndPan="magnify" viewBox="0 0 3750 449.999984" height="600" preserveAspectRatio="xMidYMid meet" version="1.0"><defs><clipPath id="e4266d93d5"><path d="M 61.5 0 L 3688.5 0 C 3722.464844 0 3750 27.535156 3750 61.5 L 3750 388.5 C 3750 422.464844 3722.464844 450 3688.5 450 L 61.5 450 C 27.535156 450 0 422.464844 0 388.5 L 0 61.5 C 0 27.535156 27.535156 0 61.5 0 Z M 61.5 0 " clip-rule="nonzero"/></clipPath><clipPath id="6edc7b1120"><path d="M 0 24.15625 L 3750 24.15625 L 3750 450 L 0 450 Z M 0 24.15625 " clip-rule="nonzero"/></clipPath><clipPath id="02290b8b62"><path d="M 61.5 24.15625 L 3688.5 24.15625 C 3722.464844 24.15625 3750 51.691406 3750 85.65625 L 3750 388.5 C 3750 422.464844 3722.464844 450 3688.5 450 L 61.5 450 C 27.535156 450 0 422.464844 0 388.5 L 0 85.65625 C 0 51.691406 27.535156 24.15625 61.5 24.15625 Z M 61.5 24.15625 " clip-rule="nonzero"/></clipPath></defs><rect x="-375" width="4500" fill="#ffffff" y="-44.999998" height="539.99998" fill-opacity="1"/><rect x="-375" width="4500" fill="#ffffff" y="-44.999998" height="539.99998" fill-opacity="1"/><g clip-path="url(#e4266d93d5)"><path fill="#02387a" d="M 0 0 L 3749.414062 0 L 3749.414062 450 L 0 450 Z M 0 0 " fill-opacity="1" fill-rule="nonzero"/></g><g clip-path="url(#6edc7b1120)"><g clip-path="url(#02290b8b62)"><path fill="#0348a5" d="M 0 24.15625 L 3749.429688 24.15625 L 3749.429688 450 L 0 450 Z M 0 24.15625 " fill-opacity="1" fill-rule="nonzero"/></g></g></svg>