<svg xmlns="http://www.w3.org/2000/svg" xmlns:xlink="http://www.w3.org/1999/xlink" width="5000" zoomAndPan="magnify" viewBox="0 0 3750 3749.999967" height="5000" preserveAspectRatio="xMidYMid meet" version="1.0"><defs><clipPath id="61e20b939b"><path d="M 175.5 0 L 3574.5 0 C 3621.046875 0 3665.683594 18.488281 3698.597656 51.402344 C 3731.507812 84.316406 3750 128.953125 3750 175.5 L 3750 3574.5 C 3750 3621.046875 3731.507812 3665.683594 3698.597656 3698.597656 C 3665.683594 3731.511719 3621.046875 3750 3574.5 3750 L 175.5 3750 C 128.953125 3750 84.316406 3731.511719 51.402344 3698.597656 C 18.488281 3665.683594 0 3621.046875 0 3574.5 L 0 175.5 C 0 78.574219 78.574219 0 175.5 0 Z M 175.5 0 " clip-rule="nonzero"/></clipPath><clipPath id="52649eeb27"><path d="M 0 0 L 3750 0 L 3750 3679.273438 L 0 3679.273438 Z M 0 0 " clip-rule="nonzero"/></clipPath><clipPath id="ee2bd98c2c"><path d="M 175.5 0 L 3574.5 0 C 3621.046875 0 3665.683594 18.488281 3698.597656 51.402344 C 3731.507812 84.316406 3750 128.953125 3750 175.5 L 3750 3503.773438 C 3750 3550.316406 3731.507812 3594.957031 3698.597656 3627.871094 C 3665.683594 3660.78125 3621.046875 3679.273438 3574.5 3679.273438 L 175.5 3679.273438 C 128.953125 3679.273438 84.316406 3660.78125 51.402344 3627.871094 C 18.488281 3594.957031 0 3550.316406 0 3503.773438 L 0 175.5 C 0 78.574219 78.574219 0 175.5 0 Z M 175.5 0 " clip-rule="nonzero"/></clipPath></defs><rect x="-375" width="4500" fill="#ffffff" y="-374.999997" height="4499.99996" fill-opacity="1"/><rect x="-375" width="4500" fill="#ffffff" y="-374.999997" height="4499.99996" fill-opacity="1"/><g clip-path="url(#61e20b939b)"><rect x="-375" width="4500" fill="#02387a" y="-374.999997" height="4499.99996" fill-opacity="1"/></g><g clip-path="url(#52649eeb27)"><g clip-path="url(#ee2bd98c2c)"><path fill="#0348a5" d="M 0 0 L 3751.132812 0 L 3751.132812 3679.273438 L 0 3679.273438 Z M 0 0 " fill-opacity="1" fill-rule="nonzero"/></g></g></svg>