<svg xmlns="http://www.w3.org/2000/svg" xmlns:xlink="http://www.w3.org/1999/xlink" width="5000" zoomAndPan="magnify" viewBox="0 0 3750 3749.999967" height="5000" preserveAspectRatio="xMidYMid meet" version="1.0"><defs><clipPath id="6bf3a0d9fb"><path d="M 175.5 0 L 3574.5 0 C 3621.046875 0 3665.683594 18.488281 3698.597656 51.402344 C 3731.507812 84.316406 3750 128.953125 3750 175.5 L 3750 3574.5 C 3750 3621.046875 3731.507812 3665.683594 3698.597656 3698.597656 C 3665.683594 3731.511719 3621.046875 3750 3574.5 3750 L 175.5 3750 C 128.953125 3750 84.316406 3731.511719 51.402344 3698.597656 C 18.488281 3665.683594 0 3621.046875 0 3574.5 L 0 175.5 C 0 78.574219 78.574219 0 175.5 0 Z M 175.5 0 " clip-rule="nonzero"/></clipPath><clipPath id="012f6a3d07"><path d="M 0 70.726562 L 3750 70.726562 L 3750 3750 L 0 3750 Z M 0 70.726562 " clip-rule="nonzero"/></clipPath><clipPath id="9b0c150790"><path d="M 175.5 70.726562 L 3574.5 70.726562 C 3621.046875 70.726562 3665.683594 89.21875 3698.597656 122.128906 C 3731.507812 155.042969 3750 199.683594 3750 246.226562 L 3750 3574.5 C 3750 3621.046875 3731.507812 3665.683594 3698.597656 3698.597656 C 3665.683594 3731.507812 3621.046875 3750 3574.5 3750 L 175.5 3750 C 128.953125 3750 84.316406 3731.507812 51.402344 3698.597656 C 18.488281 3665.683594 0 3621.046875 0 3574.5 L 0 246.226562 C 0 149.300781 78.574219 70.726562 175.5 70.726562 Z M 175.5 70.726562 " clip-rule="nonzero"/></clipPath></defs><rect x="-375" width="4500" fill="#ffffff" y="-374.999997" height="4499.99996" fill-opacity="1"/><rect x="-375" width="4500" fill="#ffffff" y="-374.999997" height="4499.99996" fill-opacity="1"/><g clip-path="url(#6bf3a0d9fb)"><rect x="-375" width="4500" fill="#02387a" y="-374.999997" height="4499.99996" fill-opacity="1"/></g><g clip-path="url(#012f6a3d07)"><g clip-path="url(#9b0c150790)"><path fill="#0348a5" d="M 0 70.726562 L 3751.132812 70.726562 L 3751.132812 3750 L 0 3750 Z M 0 70.726562 " fill-opacity="1" fill-rule="nonzero"/></g></g></svg>